<svg width="512" height="512" viewBox="0 0 512 512" fill="none" xmlns="http://www.w3.org/2000/svg">
  <rect width="512" height="512" rx="256" fill="#1DB954"/>
  <path d="M256 64C150.144 64 64 150.144 64 256C64 361.856 150.144 448 256 448C361.856 448 448 361.856 448 256C448 150.144 361.856 64 256 64ZM347.008 347.008C339.2 354.816 326.4 354.816 318.592 347.008C262.4 290.816 174.592 290.816 118.4 347.008C110.592 354.816 97.792 354.816 89.984 347.008C82.176 339.2 82.176 326.4 89.984 318.592C161.792 246.784 275.2 246.784 347.008 318.592C354.816 326.4 354.816 339.2 347.008 347.008ZM374.4 278.4C366.592 286.208 353.792 286.208 345.984 278.4C273.792 206.208 238.208 206.208 166.016 278.4C158.208 286.208 145.408 286.208 137.6 278.4C129.792 270.592 129.792 257.792 137.6 249.984C225.408 162.176 286.592 162.176 374.4 249.984C382.208 257.792 382.208 270.592 374.4 278.4Z" fill="white"/>
</svg> 